<mxfile host="app.diagrams.net" modified="2023-09-20T03:15:33.436Z" agent="Mozilla/5.0 (Windows NT 10.0; Win64; x64) AppleWebKit/537.36 (KHTML, like Gecko) Chrome/116.0.0.0 Safari/537.36" etag="hp42NTIP_3tHU6aTqmxE" version="21.7.5" type="github">
  <diagram id="C5RBs43oDa-KdzZeNtuy" name="Page-1">
    <mxGraphModel dx="281" dy="557" grid="1" gridSize="10" guides="1" tooltips="1" connect="1" arrows="1" fold="1" page="1" pageScale="1" pageWidth="827" pageHeight="1169" math="0" shadow="0">
      <root>
        <mxCell id="WIyWlLk6GJQsqaUBKTNV-0" />
        <mxCell id="WIyWlLk6GJQsqaUBKTNV-1" parent="WIyWlLk6GJQsqaUBKTNV-0" />
        <mxCell id="5QK5sH9AKLGY0e7WAv2W-7" style="edgeStyle=orthogonalEdgeStyle;rounded=0;orthogonalLoop=1;jettySize=auto;html=1;" edge="1" parent="WIyWlLk6GJQsqaUBKTNV-1" source="5QK5sH9AKLGY0e7WAv2W-0" target="5QK5sH9AKLGY0e7WAv2W-2">
          <mxGeometry relative="1" as="geometry" />
        </mxCell>
        <mxCell id="5QK5sH9AKLGY0e7WAv2W-0" value="" style="ellipse;whiteSpace=wrap;html=1;" vertex="1" parent="WIyWlLk6GJQsqaUBKTNV-1">
          <mxGeometry x="160" y="40" width="120" height="80" as="geometry" />
        </mxCell>
        <mxCell id="5QK5sH9AKLGY0e7WAv2W-8" style="edgeStyle=orthogonalEdgeStyle;rounded=0;orthogonalLoop=1;jettySize=auto;html=1;entryX=0.5;entryY=0;entryDx=0;entryDy=0;" edge="1" parent="WIyWlLk6GJQsqaUBKTNV-1" source="5QK5sH9AKLGY0e7WAv2W-2" target="5QK5sH9AKLGY0e7WAv2W-3">
          <mxGeometry relative="1" as="geometry" />
        </mxCell>
        <mxCell id="5QK5sH9AKLGY0e7WAv2W-2" value="int: nMat, nIpa, nBing, nBin&lt;br&gt;double: rataRata" style="shape=hexagon;perimeter=hexagonPerimeter2;whiteSpace=wrap;html=1;fixedSize=1;" vertex="1" parent="WIyWlLk6GJQsqaUBKTNV-1">
          <mxGeometry x="130" y="170" width="180" height="80" as="geometry" />
        </mxCell>
        <mxCell id="5QK5sH9AKLGY0e7WAv2W-9" style="edgeStyle=orthogonalEdgeStyle;rounded=0;orthogonalLoop=1;jettySize=auto;html=1;entryX=0.5;entryY=0;entryDx=0;entryDy=0;" edge="1" parent="WIyWlLk6GJQsqaUBKTNV-1" source="5QK5sH9AKLGY0e7WAv2W-3" target="5QK5sH9AKLGY0e7WAv2W-4">
          <mxGeometry relative="1" as="geometry" />
        </mxCell>
        <mxCell id="5QK5sH9AKLGY0e7WAv2W-3" value="nMat, nIpa, nBing, nBin" style="shape=parallelogram;perimeter=parallelogramPerimeter;whiteSpace=wrap;html=1;fixedSize=1;" vertex="1" parent="WIyWlLk6GJQsqaUBKTNV-1">
          <mxGeometry x="140" y="300" width="160" height="60" as="geometry" />
        </mxCell>
        <mxCell id="5QK5sH9AKLGY0e7WAv2W-10" style="edgeStyle=orthogonalEdgeStyle;rounded=0;orthogonalLoop=1;jettySize=auto;html=1;entryX=0.5;entryY=0;entryDx=0;entryDy=0;" edge="1" parent="WIyWlLk6GJQsqaUBKTNV-1" source="5QK5sH9AKLGY0e7WAv2W-4" target="5QK5sH9AKLGY0e7WAv2W-5">
          <mxGeometry relative="1" as="geometry" />
        </mxCell>
        <mxCell id="5QK5sH9AKLGY0e7WAv2W-4" value="rataRata=(nMat+nIpa)/4" style="rounded=0;whiteSpace=wrap;html=1;" vertex="1" parent="WIyWlLk6GJQsqaUBKTNV-1">
          <mxGeometry x="160" y="430" width="120" height="60" as="geometry" />
        </mxCell>
        <mxCell id="5QK5sH9AKLGY0e7WAv2W-11" style="edgeStyle=orthogonalEdgeStyle;rounded=0;orthogonalLoop=1;jettySize=auto;html=1;entryX=0.5;entryY=0;entryDx=0;entryDy=0;" edge="1" parent="WIyWlLk6GJQsqaUBKTNV-1" source="5QK5sH9AKLGY0e7WAv2W-5" target="5QK5sH9AKLGY0e7WAv2W-6">
          <mxGeometry relative="1" as="geometry" />
        </mxCell>
        <mxCell id="5QK5sH9AKLGY0e7WAv2W-5" value="PRINT rataRata" style="shape=parallelogram;perimeter=parallelogramPerimeter;whiteSpace=wrap;html=1;fixedSize=1;" vertex="1" parent="WIyWlLk6GJQsqaUBKTNV-1">
          <mxGeometry x="160" y="570" width="120" height="60" as="geometry" />
        </mxCell>
        <mxCell id="5QK5sH9AKLGY0e7WAv2W-6" value="" style="ellipse;whiteSpace=wrap;html=1;" vertex="1" parent="WIyWlLk6GJQsqaUBKTNV-1">
          <mxGeometry x="160" y="700" width="120" height="80" as="geometry" />
        </mxCell>
      </root>
    </mxGraphModel>
  </diagram>
</mxfile>
